<svg version="1.1" id="Layer_1" xmlns="http://www.w3.org/2000/svg" xmlns:xlink="http://www.w3.org/1999/xlink" x="0px" y="0px"
	 width="100%" viewBox="0 0 512 512" enable-background="new 0 0 512 512" xml:space="preserve">
<path fill="#000000" opacity="1.000000" stroke="none" 
	d="
M1.000000,139.000000 
	C1.000000,92.666664 1.000000,46.833332 1.000000,1.000000 
	C171.666672,1.000000 342.333344,1.000000 513.000000,1.000000 
	C513.000000,171.666672 513.000000,342.333344 513.000000,513.000000 
	C342.333344,513.000000 171.666672,513.000000 1.000000,513.000000 
	C1.000000,388.500000 1.000000,264.000000 1.000000,139.000000 
M248.999939,234.500000 
	C248.999939,162.080704 248.999939,89.661415 248.999939,17.387470 
	C171.261169,17.387470 94.205902,17.387470 17.253265,17.387470 
	C17.253265,177.376526 17.253265,336.978088 17.253265,496.700806 
	C94.561752,496.700806 171.616653,496.700806 248.999939,496.700806 
	C248.999939,409.434692 248.999939,322.467346 248.999939,234.500000 
M496.999969,411.500000 
	C496.999969,280.103943 496.999969,148.707901 496.999969,17.397129 
	C419.276581,17.397129 342.239960,17.397129 265.254700,17.397129 
	C265.254700,177.366333 265.254700,336.938385 265.254700,496.691315 
	C342.545898,496.691315 419.582184,496.691315 496.999969,496.691315 
	C496.999969,468.422913 496.999969,440.461456 496.999969,411.500000 
z"/>
<path fill="#00A2E8" opacity="1.000000" stroke="none" 
	d="
M248.999939,235.000000 
	C248.999939,322.467346 248.999939,409.434692 248.999939,496.700806 
	C171.616653,496.700806 94.561752,496.700806 17.253265,496.700806 
	C17.253265,336.978088 17.253265,177.376526 17.253265,17.387470 
	C94.205902,17.387470 171.261169,17.387470 248.999939,17.387470 
	C248.999939,89.661415 248.999939,162.080704 248.999939,235.000000 
M83.420654,40.204887 
	C81.128563,37.460773 78.412361,37.379002 75.356789,38.796387 
	C74.422089,39.229965 73.293098,39.595699 72.301926,39.497822 
	C67.054787,38.979641 61.823231,38.303745 56.525356,37.675289 
	C56.525356,44.021263 56.525356,49.405773 56.525356,54.779732 
	C58.694683,54.779732 60.474579,54.779732 62.910328,54.779732 
	C62.910328,51.592964 62.720882,48.617180 63.021358,45.691715 
	C63.116222,44.768105 64.522255,43.979164 65.328217,43.128590 
	C65.891815,44.026196 66.874229,44.893669 66.941368,45.826988 
	C67.152313,48.759289 67.019020,51.716358 67.019020,54.723740 
	C69.527023,54.723740 71.432091,54.723740 73.805061,54.723740 
	C73.805061,51.636513 73.623344,48.819893 73.899620,46.048931 
	C74.001945,45.022602 75.180084,44.103531 75.867599,43.135551 
	C76.560547,44.079926 77.758987,44.977768 77.851013,45.977459 
	C78.119629,48.895561 77.946457,51.854336 77.946457,54.852547 
	C80.385414,54.852547 82.184967,54.852547 84.809807,54.852547 
	C84.474594,50.074017 84.153084,45.490837 83.420654,40.204887 
M24.022243,34.431797 
	C21.106285,39.145939 21.903276,42.026955 26.826414,44.195770 
	C28.328268,44.857395 30.001684,45.136673 31.486683,45.827263 
	C32.731434,46.406128 33.816235,47.328945 34.971863,48.099468 
	C34.551697,48.721626 34.099644,49.892006 33.716961,49.869747 
	C32.171463,49.779854 30.613945,49.431446 29.123066,48.975224 
	C26.807590,48.266670 24.542854,47.392303 21.589909,46.353745 
	C22.960932,53.757706 28.760012,57.013435 35.653362,54.591690 
	C38.257843,53.676697 41.015579,50.602657 41.869621,47.927376 
	C43.059311,44.200665 39.964870,42.007072 36.441006,40.933010 
	C33.922062,40.165249 31.432331,39.301636 28.929565,38.480789 
	C29.089445,37.852917 29.249323,37.225044 29.409203,36.597176 
	C33.141312,37.495846 36.873425,38.394516 41.078232,39.407009 
	C39.775776,31.695337 32.547508,29.744747 24.022243,34.431797 
M104.712051,40.748005 
	C100.004417,34.685368 93.626747,40.992390 88.353462,37.561024 
	C88.353462,45.965664 88.353462,53.378025 88.353462,60.798935 
	C90.460587,60.798935 92.246277,60.798935 94.232498,60.798935 
	C94.488403,58.520836 94.722656,56.435444 94.959450,54.327469 
	C102.264969,55.842918 105.855766,53.762714 106.158447,47.720146 
	C106.262489,45.643116 105.468300,43.521095 104.712051,40.748005 
M135.473068,39.854900 
	C133.120255,39.230286 130.781143,38.145748 128.411804,38.075085 
	C123.189537,37.919334 120.034325,40.716026 119.343880,45.435909 
	C118.729118,49.638393 121.185959,53.520466 125.199539,54.688477 
	C130.647690,56.273975 135.036102,54.642029 137.346970,49.931629 
	C135.218948,50.050934 133.247574,50.253147 131.277161,50.244236 
	C129.559860,50.236477 127.843628,49.990551 126.126930,49.849861 
	C126.191040,49.272007 126.255157,48.694149 126.319275,48.116295 
	C130.217758,48.116295 134.116241,48.116295 139.226486,48.116295 
	C137.948074,45.002457 136.999954,42.693108 135.473068,39.854900 
M109.611794,37.585808 
	C109.611794,43.294334 109.611794,49.002861 109.611794,54.746315 
	C112.082283,54.746315 113.818672,54.746315 115.742638,54.746315 
	C115.742638,47.143543 115.742638,39.795700 115.742638,32.346668 
	C113.625420,32.346668 111.769287,32.346668 109.612099,32.346668 
	C109.612099,33.998318 109.612099,35.303127 109.611794,37.585808 
M45.842911,38.759617 
	C45.842911,44.108200 45.842911,49.456783 45.842911,55.043297 
	C48.189938,54.935925 49.922390,54.856667 51.692497,54.775688 
	C51.692497,49.037216 51.692497,43.682831 51.692497,38.125717 
	C49.787926,38.125717 48.168694,38.125717 45.842911,38.759617 
z"/>
<path fill="#ED1C24" opacity="1.000000" stroke="none" 
	d="
M496.999969,412.000000 
	C496.999969,440.461456 496.999969,468.422913 496.999969,496.691315 
	C419.582184,496.691315 342.545898,496.691315 265.254700,496.691315 
	C265.254700,336.938385 265.254700,177.366333 265.254700,17.397129 
	C342.239960,17.397129 419.276581,17.397129 496.999969,17.397129 
	C496.999969,148.707901 496.999969,280.103943 496.999969,412.000000 
M285.717834,48.582344 
	C283.717377,48.756535 280.611694,49.816097 279.914764,48.946083 
	C277.387573,45.791233 274.902893,47.260395 272.132477,47.583454 
	C273.900055,54.069767 279.233734,56.625725 286.339996,54.707832 
	C289.821198,53.768291 292.447906,51.706821 292.721985,47.951839 
	C293.007477,44.040524 290.489105,41.957466 286.956024,40.911530 
	C284.515869,40.189148 282.090118,39.418121 279.657928,38.668835 
	C279.764557,38.009151 279.871155,37.349468 279.977783,36.689785 
	C283.770081,37.545670 287.562408,38.401550 291.896301,39.379665 
	C290.255310,33.092461 287.380066,31.396496 280.644989,32.015251 
	C276.995636,32.350517 273.580750,33.473579 272.943054,37.700775 
	C272.271149,42.154602 275.609100,43.639370 279.005310,44.952087 
	C281.251221,45.820171 283.434479,46.850307 285.717834,48.582344 
M379.020691,33.610592 
	C377.167908,32.872986 375.315125,32.135376 372.916931,31.180639 
	C372.916931,39.732933 372.916931,47.151733 372.916931,54.985294 
	C376.919922,54.985294 380.921295,55.423332 384.749969,54.800243 
	C386.660400,54.489342 389.402618,52.474915 389.746277,50.812889 
	C390.401337,47.644566 390.782532,43.263771 389.090576,41.083038 
	C387.310364,38.788536 382.971619,38.479111 379.036255,37.041218 
	C379.036255,37.120506 379.036255,35.805229 379.020691,33.610592 
M459.201599,54.194424 
	C461.669250,54.502254 464.136871,54.810085 466.801086,55.142437 
	C466.801086,47.154404 466.801086,39.758095 466.801086,32.310265 
	C464.688202,32.310265 462.828705,32.310265 460.624878,32.310265 
	C460.624878,34.560787 460.624878,36.494881 460.624878,38.428970 
	C460.323639,38.017197 460.022369,37.605419 459.721130,37.193645 
	C456.526733,38.464066 451.883087,38.888226 450.517578,41.226620 
	C448.935364,43.936131 449.458069,48.568810 450.498199,51.922768 
	C451.563873,55.359016 455.219940,55.563702 459.201599,54.194424 
M424.833466,53.634979 
	C427.261139,54.217686 429.688812,54.800388 432.048798,55.366848 
	C432.048798,51.562126 431.951691,48.623005 432.072571,45.692879 
	C432.235504,41.743637 431.088013,38.831089 426.752655,38.082150 
	C420.071838,36.928024 416.643372,38.216499 414.327179,43.625900 
	C418.381683,43.206474 421.806702,42.852161 425.231750,42.497852 
	C425.306488,42.958862 425.381195,43.419876 425.455933,43.880886 
	C423.057831,44.545807 420.405396,44.781166 418.338287,46.005112 
	C416.529968,47.075821 415.379791,49.258057 413.938873,50.949261 
	C415.750305,52.306030 417.399811,54.084007 419.432465,54.865448 
	C420.701477,55.353302 422.548523,54.337685 424.833466,53.634979 
M362.146759,50.618694 
	C360.673676,50.273567 359.200592,49.928436 357.727509,49.583309 
	C357.862610,49.002186 357.997742,48.421059 358.132843,47.839935 
	C362.040649,47.839935 365.948425,47.839935 369.853333,47.839935 
	C369.599762,41.250183 367.234650,38.457630 361.880981,37.998795 
	C356.080383,37.501656 352.021881,39.952156 351.079346,44.520786 
	C350.135040,49.097977 352.280304,53.206490 356.338684,54.593227 
	C361.707764,56.427818 366.584045,54.721844 368.931488,49.943668 
	C366.805908,50.042347 364.835114,50.133839 362.146759,50.618694 
M471.077362,45.410141 
	C472.502228,46.505150 473.927094,47.600159 475.428284,48.753803 
	C473.526978,49.288548 471.793701,49.776031 469.867828,50.317696 
	C472.115143,55.655491 476.631378,55.184113 480.867798,54.929970 
	C484.203979,54.729828 487.418365,53.384476 487.614441,49.616222 
	C487.821472,45.638458 484.468628,44.674057 481.218109,44.024487 
	C479.535431,43.688229 477.890503,43.163006 476.228516,42.723156 
	C476.325104,42.293266 476.421722,41.863377 476.518341,41.433483 
	C479.845001,41.796223 483.171661,42.158962 487.713531,42.654202 
	C483.711487,38.042622 478.404938,36.805904 474.115997,38.535564 
	C471.305481,39.669006 469.750458,41.519295 471.077362,45.410141 
M323.020935,38.079769 
	C322.243317,38.361076 321.418243,38.553265 320.695862,38.938225 
	C316.194000,41.337330 314.590973,45.963478 316.726471,50.266964 
	C318.947968,54.743698 325.192596,56.498081 330.177185,54.045818 
	C334.484314,51.926846 336.251190,46.870522 334.024963,42.634434 
	C331.860596,38.515984 328.076630,37.712414 323.020935,38.079769 
M411.015930,50.262131 
	C412.811005,46.284492 412.238525,42.669247 408.783783,39.989082 
	C405.161957,37.179291 401.000122,37.160004 397.048126,39.242977 
	C393.560303,41.081310 391.867950,44.555016 393.235321,48.066891 
	C394.243500,50.656109 396.708984,53.525974 399.212433,54.494652 
	C403.419861,56.122704 407.763306,55.069714 411.015930,50.262131 
M312.744293,43.003078 
	C311.835999,37.780193 307.757935,37.990719 303.942627,38.008183 
	C299.533600,38.028362 296.131134,39.787331 295.118378,44.437611 
	C294.064972,49.274448 296.030243,52.818024 300.360626,54.408993 
	C306.157532,56.538750 310.900879,54.794472 314.474365,48.057011 
	C311.301392,48.788460 309.098938,49.393295 306.858582,49.777256 
	C305.451477,50.018410 302.839539,50.268536 302.739136,49.930084 
	C302.171600,48.016457 301.778412,45.825794 302.225861,43.943432 
	C302.414185,43.151211 304.793121,42.517719 306.200684,42.464993 
	C308.148285,42.392033 310.118958,42.935478 312.744293,43.003078 
M343.995392,54.339180 
	C344.052368,52.184048 343.776672,49.949108 344.268677,47.898365 
	C344.682617,46.173225 345.812866,44.521057 346.951141,43.096333 
	C348.098694,41.660007 349.646820,40.543720 351.744904,38.623093 
	C346.102020,38.623093 342.159393,38.623093 338.144379,38.623093 
	C338.144379,43.875710 338.144379,49.274292 338.144379,54.922989 
	C340.030853,54.922989 341.658020,54.922989 343.995392,54.339180 
M442.152740,48.074978 
	C444.321106,44.991199 446.489502,41.907425 448.817230,38.597004 
	C444.247345,38.597004 440.280273,38.597004 436.258881,38.597004 
	C436.258881,43.850460 436.258881,49.378525 436.258881,54.705318 
	C438.410858,54.705318 440.173859,54.705318 442.143738,54.705318 
	C442.143738,52.583714 442.143738,50.768314 442.152740,48.074978 
z"/>
<path fill="#F4FAFD" opacity="1.000000" stroke="none" 
	d="
M83.626114,40.556271 
	C84.153084,45.490837 84.474594,50.074017 84.809807,54.852547 
	C82.184967,54.852547 80.385414,54.852547 77.946457,54.852547 
	C77.946457,51.854336 78.119629,48.895561 77.851013,45.977459 
	C77.758987,44.977768 76.560547,44.079926 75.867599,43.135551 
	C75.180084,44.103531 74.001945,45.022602 73.899620,46.048931 
	C73.623344,48.819893 73.805061,51.636513 73.805061,54.723740 
	C71.432091,54.723740 69.527023,54.723740 67.019020,54.723740 
	C67.019020,51.716358 67.152313,48.759289 66.941368,45.826988 
	C66.874229,44.893669 65.891815,44.026196 65.328217,43.128590 
	C64.522255,43.979164 63.116222,44.768105 63.021358,45.691715 
	C62.720882,48.617180 62.910328,51.592964 62.910328,54.779732 
	C60.474579,54.779732 58.694683,54.779732 56.525356,54.779732 
	C56.525356,49.405773 56.525356,44.021263 56.525356,37.675289 
	C61.823231,38.303745 67.054787,38.979641 72.301926,39.497822 
	C73.293098,39.595699 74.422089,39.229965 75.356789,38.796387 
	C78.412361,37.379002 81.128563,37.460773 83.626114,40.556271 
z"/>
<path fill="#F4FAFD" opacity="1.000000" stroke="none" 
	d="
M24.319071,34.177074 
	C32.547508,29.744747 39.775776,31.695337 41.078232,39.407009 
	C36.873425,38.394516 33.141312,37.495846 29.409203,36.597176 
	C29.249323,37.225044 29.089445,37.852917 28.929565,38.480789 
	C31.432331,39.301636 33.922062,40.165249 36.441006,40.933010 
	C39.964870,42.007072 43.059311,44.200665 41.869621,47.927376 
	C41.015579,50.602657 38.257843,53.676697 35.653362,54.591690 
	C28.760012,57.013435 22.960932,53.757706 21.589909,46.353745 
	C24.542854,47.392303 26.807590,48.266670 29.123066,48.975224 
	C30.613945,49.431446 32.171463,49.779854 33.716961,49.869747 
	C34.099644,49.892006 34.551697,48.721626 34.971863,48.099468 
	C33.816235,47.328945 32.731434,46.406128 31.486683,45.827263 
	C30.001684,45.136673 28.328268,44.857395 26.826414,44.195770 
	C21.903276,42.026955 21.106285,39.145939 24.319071,34.177074 
z"/>
<path fill="#F4FAFD" opacity="1.000000" stroke="none" 
	d="
M104.898254,41.083817 
	C105.468300,43.521095 106.262489,45.643116 106.158447,47.720146 
	C105.855766,53.762714 102.264969,55.842918 94.959450,54.327469 
	C94.722656,56.435444 94.488403,58.520836 94.232498,60.798935 
	C92.246277,60.798935 90.460587,60.798935 88.353462,60.798935 
	C88.353462,53.378025 88.353462,45.965664 88.353462,37.561024 
	C93.626747,40.992390 100.004417,34.685368 104.898254,41.083817 
M99.592522,48.832790 
	C99.673347,47.846569 100.053802,46.760155 99.765320,45.897419 
	C99.323799,44.576962 98.421066,43.410725 97.714096,42.179028 
	C96.803757,42.732105 95.167961,43.225101 95.116264,43.849293 
	C94.947029,45.892780 95.354149,47.984009 95.539680,50.056885 
	C96.773750,49.876606 98.007828,49.696331 99.592522,48.832790 
z"/>
<path fill="#F4FAFD" opacity="1.000000" stroke="none" 
	d="
M135.762451,40.119328 
	C136.999954,42.693108 137.948074,45.002457 139.226486,48.116295 
	C134.116241,48.116295 130.217758,48.116295 126.319275,48.116295 
	C126.255157,48.694149 126.191040,49.272007 126.126930,49.849861 
	C127.843628,49.990551 129.559860,50.236477 131.277161,50.244236 
	C133.247574,50.253147 135.218948,50.050934 137.346970,49.931629 
	C135.036102,54.642029 130.647690,56.273975 125.199539,54.688477 
	C121.185959,53.520466 118.729118,49.638393 119.343880,45.435909 
	C120.034325,40.716026 123.189537,37.919334 128.411804,38.075085 
	C130.781143,38.145748 133.120255,39.230286 135.762451,40.119328 
z"/>
<path fill="#FEFAF7" opacity="1.000000" stroke="none" 
	d="
M109.611946,37.096870 
	C109.612099,35.303127 109.612099,33.998318 109.612099,32.346668 
	C111.769287,32.346668 113.625420,32.346668 115.742638,32.346668 
	C115.742638,39.795700 115.742638,47.143543 115.742638,54.746315 
	C113.818672,54.746315 112.082283,54.746315 109.611794,54.746315 
	C109.611794,49.002861 109.611794,43.294334 109.611946,37.096870 
z"/>
<path fill="#FEFAF7" opacity="1.000000" stroke="none" 
	d="
M46.196186,38.442665 
	C48.168694,38.125717 49.787926,38.125717 51.692497,38.125717 
	C51.692497,43.682831 51.692497,49.037216 51.692497,54.775688 
	C49.922390,54.856667 48.189938,54.935925 45.842911,55.043297 
	C45.842911,49.456783 45.842911,44.108200 46.196186,38.442665 
z"/>
<path fill="#FEF4F5" opacity="1.000000" stroke="none" 
	d="
M285.681824,48.195114 
	C283.434479,46.850307 281.251221,45.820171 279.005310,44.952087 
	C275.609100,43.639370 272.271149,42.154602 272.943054,37.700775 
	C273.580750,33.473579 276.995636,32.350517 280.644989,32.015251 
	C287.380066,31.396496 290.255310,33.092461 291.896301,39.379665 
	C287.562408,38.401550 283.770081,37.545670 279.977783,36.689785 
	C279.871155,37.349468 279.764557,38.009151 279.657928,38.668835 
	C282.090118,39.418121 284.515869,40.189148 286.956024,40.911530 
	C290.489105,41.957466 293.007477,44.040524 292.721985,47.951839 
	C292.447906,51.706821 289.821198,53.768291 286.339996,54.707832 
	C279.233734,56.625725 273.900055,54.069767 272.132477,47.583454 
	C274.902893,47.260395 277.387573,45.791233 279.914764,48.946083 
	C280.611694,49.816097 283.717377,48.756535 285.681824,48.195114 
z"/>
<path fill="#FEFAF7" opacity="1.000000" stroke="none" 
	d="
M379.028473,34.050270 
	C379.036255,35.805229 379.036255,37.120506 379.036255,37.041218 
	C382.971619,38.479111 387.310364,38.788536 389.090576,41.083038 
	C390.782532,43.263771 390.401337,47.644566 389.746277,50.812889 
	C389.402618,52.474915 386.660400,54.489342 384.749969,54.800243 
	C380.921295,55.423332 376.919922,54.985294 372.916931,54.985294 
	C372.916931,47.151733 372.916931,39.732933 372.916931,31.180639 
	C375.315125,32.135376 377.167908,32.872986 379.028473,34.050270 
M380.761475,42.353325 
	C380.324585,44.604794 379.887695,46.856262 379.450806,49.107731 
	C380.837036,49.312450 383.388733,49.842335 383.435852,49.673435 
	C384.226105,46.841084 385.902527,43.587311 380.761475,42.353325 
z"/>
<path fill="#FEFAF7" opacity="1.000000" stroke="none" 
	d="
M458.879211,54.411507 
	C455.219940,55.563702 451.563873,55.359016 450.498199,51.922768 
	C449.458069,48.568810 448.935364,43.936131 450.517578,41.226620 
	C451.883087,38.888226 456.526733,38.464066 459.721130,37.193645 
	C460.022369,37.605419 460.323639,38.017197 460.624878,38.428970 
	C460.624878,36.494881 460.624878,34.560787 460.624878,32.310265 
	C462.828705,32.310265 464.688202,32.310265 466.801086,32.310265 
	C466.801086,39.758095 466.801086,47.154404 466.801086,55.142437 
	C464.136871,54.810085 461.669250,54.502254 458.879211,54.411507 
M460.044373,43.545055 
	C458.833832,43.284813 457.623322,43.024570 456.412811,42.764324 
	C456.244476,44.949306 455.922241,47.140774 456.013824,49.314796 
	C456.037292,49.871769 457.367859,50.373676 458.097900,50.900894 
	C458.953278,49.653515 460.017120,48.492481 460.583374,47.125359 
	C460.906830,46.344383 460.419800,45.227711 460.044373,43.545055 
z"/>
<path fill="#FEF4F5" opacity="1.000000" stroke="none" 
	d="
M424.484802,53.815861 
	C422.548523,54.337685 420.701477,55.353302 419.432465,54.865448 
	C417.399811,54.084007 415.750305,52.306030 413.938873,50.949257 
	C415.379791,49.258057 416.529968,47.075821 418.338287,46.005112 
	C420.405396,44.781166 423.057831,44.545807 425.455933,43.880886 
	C425.381195,43.419876 425.306488,42.958862 425.231750,42.497852 
	C421.806702,42.852161 418.381683,43.206474 414.327179,43.625900 
	C416.643372,38.216499 420.071838,36.928024 426.752655,38.082150 
	C431.088013,38.831089 432.235504,41.743637 432.072571,45.692879 
	C431.951691,48.623005 432.048798,51.562126 432.048798,55.366848 
	C429.688812,54.800388 427.261139,54.217686 424.484802,53.815861 
z"/>
<path fill="#FEF4F5" opacity="1.000000" stroke="none" 
	d="
M362.505554,50.422012 
	C364.835114,50.133839 366.805908,50.042347 368.931488,49.943668 
	C366.584045,54.721844 361.707764,56.427818 356.338684,54.593227 
	C352.280304,53.206490 350.135040,49.097977 351.079346,44.520786 
	C352.021881,39.952156 356.080383,37.501656 361.880981,37.998795 
	C367.234650,38.457630 369.599762,41.250183 369.853333,47.839935 
	C365.948425,47.839935 362.040649,47.839935 358.132843,47.839935 
	C357.997742,48.421059 357.862610,49.002186 357.727509,49.583309 
	C359.200592,49.928436 360.673676,50.273567 362.505554,50.422012 
z"/>
<path fill="#FEF4F5" opacity="1.000000" stroke="none" 
	d="
M470.940796,45.074337 
	C469.750458,41.519295 471.305481,39.669006 474.115997,38.535564 
	C478.404938,36.805904 483.711487,38.042622 487.713531,42.654202 
	C483.171661,42.158962 479.845001,41.796223 476.518341,41.433483 
	C476.421722,41.863377 476.325104,42.293266 476.228516,42.723156 
	C477.890503,43.163006 479.535431,43.688229 481.218109,44.024487 
	C484.468628,44.674057 487.821472,45.638458 487.614441,49.616222 
	C487.418365,53.384476 484.203979,54.729828 480.867798,54.929970 
	C476.631378,55.184113 472.115143,55.655491 469.867828,50.317696 
	C471.793701,49.776031 473.526978,49.288548 475.428284,48.753803 
	C473.927094,47.600159 472.502228,46.505150 470.940796,45.074337 
z"/>
<path fill="#FEF4F5" opacity="1.000000" stroke="none" 
	d="
M323.433929,38.044712 
	C328.076630,37.712414 331.860596,38.515984 334.024963,42.634434 
	C336.251190,46.870522 334.484314,51.926846 330.177185,54.045818 
	C325.192596,56.498081 318.947968,54.743698 316.726471,50.266964 
	C314.590973,45.963478 316.194000,41.337330 320.695862,38.938225 
	C321.418243,38.553265 322.243317,38.361076 323.433929,38.044712 
M325.627045,50.917259 
	C329.551178,49.049660 328.618500,45.991665 327.243561,43.143826 
	C326.959442,42.555359 324.469574,42.187286 323.982941,42.684078 
	C321.594849,45.121975 321.675781,47.872433 323.971649,50.462219 
	C324.169373,50.685291 324.544952,50.750717 325.627045,50.917259 
z"/>
<path fill="#FEF4F5" opacity="1.000000" stroke="none" 
	d="
M410.858124,50.618134 
	C407.763306,55.069714 403.419861,56.122704 399.212433,54.494652 
	C396.708984,53.525974 394.243500,50.656109 393.235321,48.066891 
	C391.867950,44.555016 393.560303,41.081310 397.048126,39.242977 
	C401.000122,37.160004 405.161957,37.179291 408.783783,39.989082 
	C412.238525,42.669247 412.811005,46.284492 410.858124,50.618134 
M404.947876,44.078312 
	C403.645721,43.537788 402.343536,42.997265 401.041382,42.456734 
	C400.606781,44.550976 399.894440,46.644585 399.889679,48.739807 
	C399.888000,49.464100 401.645477,50.192398 402.599426,50.918861 
	C403.493774,49.553856 404.476746,48.235462 405.232849,46.797749 
	C405.486145,46.316135 405.160767,45.530201 404.947876,44.078312 
z"/>
<path fill="#FEF4F5" opacity="1.000000" stroke="none" 
	d="
M312.412048,43.109020 
	C310.118958,42.935478 308.148285,42.392033 306.200684,42.464993 
	C304.793121,42.517719 302.414185,43.151211 302.225861,43.943432 
	C301.778412,45.825794 302.171600,48.016457 302.739136,49.930084 
	C302.839539,50.268536 305.451477,50.018410 306.858582,49.777256 
	C309.098938,49.393295 311.301392,48.788460 314.474365,48.057011 
	C310.900879,54.794472 306.157532,56.538750 300.360626,54.408993 
	C296.030243,52.818024 294.064972,49.274448 295.118378,44.437611 
	C296.131134,39.787331 299.533600,38.028362 303.942627,38.008183 
	C307.757935,37.990719 311.835999,37.780193 312.412048,43.109020 
z"/>
<path fill="#FEFAF7" opacity="1.000000" stroke="none" 
	d="
M343.640289,54.631084 
	C341.658020,54.922989 340.030853,54.922989 338.144379,54.922989 
	C338.144379,49.274292 338.144379,43.875710 338.144379,38.623093 
	C342.159393,38.623093 346.102020,38.623093 351.744904,38.623093 
	C349.646820,40.543720 348.098694,41.660007 346.951141,43.096333 
	C345.812866,44.521057 344.682617,46.173225 344.268677,47.898365 
	C343.776672,49.949108 344.052368,52.184048 343.640289,54.631084 
z"/>
<path fill="#FEFAF7" opacity="1.000000" stroke="none" 
	d="
M442.148254,48.513947 
	C442.143738,50.768314 442.143738,52.583714 442.143738,54.705318 
	C440.173859,54.705318 438.410858,54.705318 436.258881,54.705318 
	C436.258881,49.378525 436.258881,43.850460 436.258881,38.597004 
	C440.280273,38.597004 444.247345,38.597004 448.817230,38.597004 
	C446.489502,41.907425 444.321106,44.991199 442.148254,48.513947 
z"/>
<path fill="#00A2E8" opacity="1.000000" stroke="none" 
	d="
M99.417206,49.174423 
	C98.007828,49.696331 96.773750,49.876606 95.539680,50.056885 
	C95.354149,47.984009 94.947029,45.892780 95.116264,43.849293 
	C95.167961,43.225101 96.803757,42.732105 97.714096,42.179028 
	C98.421066,43.410725 99.323799,44.576962 99.765320,45.897419 
	C100.053802,46.760155 99.673347,47.846569 99.417206,49.174423 
z"/>
<path fill="#ED1C24" opacity="1.000000" stroke="none" 
	d="
M381.119446,42.213223 
	C385.902527,43.587311 384.226105,46.841084 383.435852,49.673435 
	C383.388733,49.842335 380.837036,49.312450 379.450806,49.107731 
	C379.887695,46.856262 380.324585,44.604794 381.119446,42.213223 
z"/>
<path fill="#ED1C24" opacity="1.000000" stroke="none" 
	d="
M460.171051,43.903622 
	C460.419800,45.227711 460.906830,46.344383 460.583374,47.125359 
	C460.017120,48.492481 458.953278,49.653515 458.097900,50.900890 
	C457.367859,50.373676 456.037292,49.871769 456.013824,49.314796 
	C455.922241,47.140774 456.244476,44.949306 456.412781,42.764328 
	C457.623322,43.024570 458.833832,43.284813 460.171051,43.903622 
z"/>
<path fill="#ED1C24" opacity="1.000000" stroke="none" 
	d="
M325.232483,50.903313 
	C324.544952,50.750717 324.169373,50.685291 323.971649,50.462219 
	C321.675781,47.872433 321.594849,45.121975 323.982941,42.684078 
	C324.469574,42.187286 326.959442,42.555359 327.243561,43.143826 
	C328.618500,45.991665 329.551178,49.049660 325.232483,50.903313 
z"/>
<path fill="#ED1C24" opacity="1.000000" stroke="none" 
	d="
M405.023865,44.480843 
	C405.160767,45.530201 405.486145,46.316135 405.232849,46.797749 
	C404.476746,48.235462 403.493774,49.553856 402.599426,50.918861 
	C401.645477,50.192398 399.888000,49.464100 399.889679,48.739807 
	C399.894440,46.644585 400.606781,44.550976 401.041382,42.456738 
	C402.343536,42.997265 403.645721,43.537788 405.023865,44.480843 
z"/>
</svg>